<mxfile host="app.diagrams.net" modified="2020-05-09T17:45:03.698Z" agent="5.0 (X11; Linux x86_64) AppleWebKit/537.36 (KHTML, like Gecko) Chrome/81.0.4044.129 Safari/537.36" etag="UlNdZo8UEcTfcp7OuHVu" version="13.0.9" type="github">
  <diagram id="C5RBs43oDa-KdzZeNtuy" name="Page-1">
    <mxGraphModel dx="1730" dy="970" grid="1" gridSize="10" guides="1" tooltips="1" connect="1" arrows="1" fold="1" page="1" pageScale="1.5" pageWidth="827" pageHeight="1169" math="0" shadow="0" extFonts="Quicksand^https://fonts.googleapis.com/css?family=Quicksand|Gruppo^https://fonts.googleapis.com/css?family=Gruppo|Pompiere^https://fonts.googleapis.com/css?family=Pompiere">
      <root>
        <mxCell id="WIyWlLk6GJQsqaUBKTNV-0" />
        <mxCell id="WIyWlLk6GJQsqaUBKTNV-1" parent="WIyWlLk6GJQsqaUBKTNV-0" />
        <mxCell id="EIEGdvuZ-sx4ZcDznCTi-2" value="&lt;table border=&quot;1&quot; width=&quot;100%&quot; style=&quot;width: 100% ; height: 100% ; border-collapse: collapse ; border: 1px solid rgb(0 , 0 , 0)&quot;&gt;&lt;tbody&gt;&lt;tr&gt;&lt;td&gt;&lt;u&gt;&lt;i&gt;ID_Dipendente&lt;/i&gt;&lt;/u&gt;&lt;/td&gt;&lt;td&gt;Data_Nascita&lt;/td&gt;&lt;td&gt;Cod.Fiscale&lt;/td&gt;&lt;td&gt;Foto&lt;/td&gt;&lt;td&gt;Data_Assunzione&lt;/td&gt;&lt;td&gt;&lt;i&gt;ID_Struttura&lt;/i&gt;&lt;/td&gt;&lt;/tr&gt;&lt;/tbody&gt;&lt;/table&gt;" style="text;html=1;strokeColor=none;fillColor=none;overflow=fill;align=center;" parent="WIyWlLk6GJQsqaUBKTNV-1" vertex="1">
          <mxGeometry x="384" y="284" width="460" height="30" as="geometry" />
        </mxCell>
        <mxCell id="EIEGdvuZ-sx4ZcDznCTi-4" value="&lt;b&gt;DIPENDENTE&lt;/b&gt;" style="text;html=1;strokeColor=none;fillColor=none;align=center;verticalAlign=middle;whiteSpace=wrap;rounded=0;" parent="WIyWlLk6GJQsqaUBKTNV-1" vertex="1">
          <mxGeometry x="403" y="261" width="40" height="20" as="geometry" />
        </mxCell>
        <mxCell id="EIEGdvuZ-sx4ZcDznCTi-5" value="&lt;table border=&quot;1&quot; width=&quot;100%&quot; style=&quot;width: 100% ; height: 100% ; border-collapse: collapse ; border: 1px solid rgb(0 , 0 , 0)&quot;&gt;&lt;tbody&gt;&lt;tr&gt;&lt;td&gt;&lt;u&gt;ID_Struttura&lt;/u&gt;&lt;/td&gt;&lt;td&gt;Indirizzo&lt;/td&gt;&lt;td&gt;Nome&lt;/td&gt;&lt;td&gt;Tipo&lt;/td&gt;&lt;td&gt;Num_Dipendenti&lt;/td&gt;&lt;td&gt;Num_Telefono&lt;/td&gt;&lt;td&gt;&lt;i&gt;ID_Direttore&lt;/i&gt;&lt;/td&gt;&lt;td&gt;Data_Inizio&lt;/td&gt;&lt;/tr&gt;&lt;/tbody&gt;&lt;/table&gt;" style="text;html=1;strokeColor=none;fillColor=none;overflow=fill;align=center;" parent="WIyWlLk6GJQsqaUBKTNV-1" vertex="1">
          <mxGeometry x="340" y="518" width="560" height="30" as="geometry" />
        </mxCell>
        <mxCell id="EIEGdvuZ-sx4ZcDznCTi-8" value="&lt;b&gt;STRUTTURA&lt;/b&gt;" style="text;html=1;strokeColor=none;fillColor=none;align=center;verticalAlign=middle;whiteSpace=wrap;rounded=0;" parent="WIyWlLk6GJQsqaUBKTNV-1" vertex="1">
          <mxGeometry x="356" y="491" width="40" height="20" as="geometry" />
        </mxCell>
        <mxCell id="EIEGdvuZ-sx4ZcDznCTi-9" value="&lt;table border=&quot;1&quot; width=&quot;100%&quot; style=&quot;width: 100% ; height: 100% ; border-collapse: collapse ; border: 1px solid rgb(0 , 0 , 0)&quot;&gt;&lt;tbody&gt;&lt;tr&gt;&lt;td&gt;&lt;u&gt;ID_Prenotazione&lt;/u&gt;&lt;/td&gt;&lt;td&gt;Data&lt;/td&gt;&lt;td&gt;Ora&lt;/td&gt;&lt;td&gt;Prezzo&lt;/td&gt;&lt;td&gt;Durata&lt;/td&gt;&lt;td&gt;&lt;i&gt;ID_Dipendente&lt;/i&gt;&lt;/td&gt;&lt;td&gt;&lt;i&gt;ID_Cliente&lt;/i&gt;&lt;/td&gt;&lt;/tr&gt;&lt;/tbody&gt;&lt;/table&gt;" style="text;html=1;strokeColor=none;fillColor=none;overflow=fill;align=center;" parent="WIyWlLk6GJQsqaUBKTNV-1" vertex="1">
          <mxGeometry x="407" y="772" width="430" height="30" as="geometry" />
        </mxCell>
        <mxCell id="EIEGdvuZ-sx4ZcDznCTi-10" value="&lt;b&gt;PRENOTAZIONE&lt;/b&gt;" style="text;html=1;strokeColor=none;fillColor=none;align=center;verticalAlign=middle;whiteSpace=wrap;rounded=0;" parent="WIyWlLk6GJQsqaUBKTNV-1" vertex="1">
          <mxGeometry x="437" y="749" width="40" height="20" as="geometry" />
        </mxCell>
        <mxCell id="KOET7OHkxtdppqmsKOV2-0" value="&lt;table border=&quot;1&quot; width=&quot;100%&quot; style=&quot;width: 100% ; height: 100% ; border-collapse: collapse ; border: 1px solid rgb(0 , 0 , 0)&quot;&gt;&lt;tbody&gt;&lt;tr&gt;&lt;td&gt;&lt;u&gt;ID_Prestazione&lt;/u&gt;&lt;/td&gt;&lt;td&gt;Nome&lt;/td&gt;&lt;td&gt;Prezzo&lt;/td&gt;&lt;td&gt;Durata&lt;/td&gt;&lt;/tr&gt;&lt;/tbody&gt;&lt;/table&gt;" style="text;html=1;strokeColor=none;fillColor=none;overflow=fill;align=center;" parent="WIyWlLk6GJQsqaUBKTNV-1" vertex="1">
          <mxGeometry x="496" y="1014" width="260" height="30" as="geometry" />
        </mxCell>
        <mxCell id="KOET7OHkxtdppqmsKOV2-1" value="&lt;b&gt;SERVIZIO&lt;/b&gt;" style="text;html=1;strokeColor=none;fillColor=none;align=center;verticalAlign=middle;whiteSpace=wrap;rounded=0;" parent="WIyWlLk6GJQsqaUBKTNV-1" vertex="1">
          <mxGeometry x="512" y="991" width="40" height="20" as="geometry" />
        </mxCell>
        <mxCell id="KOET7OHkxtdppqmsKOV2-4" value="&lt;table style=&quot;width: 100% ; height: 100% ; border-collapse: collapse ; border: 1px solid rgb(0 , 0 , 0)&quot; width=&quot;100%&quot; border=&quot;1&quot;&gt;&lt;tbody&gt;&lt;tr&gt;&lt;td&gt;&lt;u&gt;ID_Coupon&lt;/u&gt;&lt;/td&gt;&lt;td&gt;&lt;i&gt;ID_Cliente&lt;/i&gt;&lt;/td&gt;&lt;td&gt;&lt;i&gt;ID_Prenotazione&lt;/i&gt;&lt;/td&gt;&lt;td&gt;Sconto_Percentuale&lt;/td&gt;&lt;td&gt;Stato&lt;/td&gt;&lt;td&gt;Data_Emissione&lt;/td&gt;&lt;td&gt;Data_Scadenza&lt;/td&gt;&lt;td&gt;Codice&lt;br&gt;&lt;/td&gt;&lt;/tr&gt;&lt;/tbody&gt;&lt;/table&gt;" style="text;html=1;strokeColor=none;fillColor=none;overflow=fill;align=center;" parent="WIyWlLk6GJQsqaUBKTNV-1" vertex="1">
          <mxGeometry x="266.88" y="1311" width="700.75" height="30" as="geometry" />
        </mxCell>
        <mxCell id="KOET7OHkxtdppqmsKOV2-5" value="&lt;b&gt;COUPON&lt;/b&gt;" style="text;html=1;strokeColor=none;fillColor=none;align=center;verticalAlign=middle;whiteSpace=wrap;rounded=0;" parent="WIyWlLk6GJQsqaUBKTNV-1" vertex="1">
          <mxGeometry x="274.88" y="1290" width="40" height="20" as="geometry" />
        </mxCell>
        <mxCell id="KOET7OHkxtdppqmsKOV2-6" value="&lt;table style=&quot;width: 100% ; height: 100% ; border-collapse: collapse ; border: 1px solid rgb(0 , 0 , 0)&quot; width=&quot;100%&quot; border=&quot;1&quot;&gt;&lt;tbody&gt;&lt;tr&gt;&lt;td&gt;&lt;u&gt;&lt;i&gt;ID_Cliente&lt;/i&gt;&lt;/u&gt;&lt;/td&gt;&lt;td&gt;Num_Prodotti_Ordinati&lt;/td&gt;&lt;td&gt;Num_Servizi_Prenotati&lt;/td&gt;&lt;td&gt;Bloccato&lt;/td&gt;&lt;/tr&gt;&lt;/tbody&gt;&lt;/table&gt;" style="text;html=1;strokeColor=none;fillColor=none;overflow=fill;align=center;" parent="WIyWlLk6GJQsqaUBKTNV-1" vertex="1">
          <mxGeometry x="462" y="360" width="378" height="30" as="geometry" />
        </mxCell>
        <mxCell id="KOET7OHkxtdppqmsKOV2-7" value="&lt;b&gt;CLIENTE&lt;/b&gt;" style="text;html=1;strokeColor=none;fillColor=none;align=center;verticalAlign=middle;whiteSpace=wrap;rounded=0;" parent="WIyWlLk6GJQsqaUBKTNV-1" vertex="1">
          <mxGeometry x="463.5" y="338" width="40" height="20" as="geometry" />
        </mxCell>
        <mxCell id="KOET7OHkxtdppqmsKOV2-9" value="&lt;table border=&quot;1&quot; width=&quot;100%&quot; style=&quot;width: 100% ; height: 100% ; border-collapse: collapse ; border: 1px solid rgb(0 , 0 , 0)&quot;&gt;&lt;tbody&gt;&lt;tr&gt;&lt;td&gt;&lt;u&gt;ID_Prodotto&lt;/u&gt;&lt;/td&gt;&lt;td&gt;Produttore&lt;/td&gt;&lt;td&gt;Prezzo&lt;/td&gt;&lt;td&gt;Sconto&lt;/td&gt;&lt;td&gt;Nome&lt;/td&gt;&lt;td&gt;Data_Ins&lt;/td&gt;&lt;td&gt;Nome_Img&lt;/td&gt;&lt;td&gt;Descrizione&lt;/td&gt;&lt;td&gt;Categoria&lt;/td&gt;&lt;td&gt;QuantitÃ &lt;/td&gt;&lt;td&gt;Vetrina&lt;/td&gt;&lt;td&gt;&lt;i&gt;ID_Fornitore&lt;/i&gt;&lt;/td&gt;&lt;/tr&gt;&lt;/tbody&gt;&lt;/table&gt;" style="text;html=1;strokeColor=none;fillColor=none;overflow=fill;align=center;" parent="WIyWlLk6GJQsqaUBKTNV-1" vertex="1">
          <mxGeometry x="305" y="603" width="674" height="30" as="geometry" />
        </mxCell>
        <mxCell id="KOET7OHkxtdppqmsKOV2-10" value="&lt;b&gt;PRODOTTO&lt;/b&gt;" style="text;html=1;strokeColor=none;fillColor=none;align=center;verticalAlign=middle;whiteSpace=wrap;rounded=0;" parent="WIyWlLk6GJQsqaUBKTNV-1" vertex="1">
          <mxGeometry x="336" y="580" width="40" height="20" as="geometry" />
        </mxCell>
        <mxCell id="KOET7OHkxtdppqmsKOV2-11" value="&lt;table border=&quot;1&quot; width=&quot;100%&quot; style=&quot;width: 100% ; height: 100% ; border-collapse: collapse ; border: 1px solid rgb(0 , 0 , 0)&quot;&gt;&lt;tbody&gt;&lt;tr&gt;&lt;td&gt;&lt;u&gt;ID_Fornitore&lt;/u&gt;&lt;/td&gt;&lt;td&gt;IBAN&lt;/td&gt;&lt;td&gt;Nome&lt;/td&gt;&lt;td&gt;Cognome&lt;/td&gt;&lt;td&gt;Indirizzo&lt;/td&gt;&lt;/tr&gt;&lt;/tbody&gt;&lt;/table&gt;" style="text;html=1;strokeColor=none;fillColor=none;overflow=fill;align=center;" parent="WIyWlLk6GJQsqaUBKTNV-1" vertex="1">
          <mxGeometry x="443" y="1164" width="362" height="30" as="geometry" />
        </mxCell>
        <mxCell id="KOET7OHkxtdppqmsKOV2-12" value="&lt;b&gt;FORNITORE&lt;/b&gt;" style="text;html=1;strokeColor=none;fillColor=none;align=center;verticalAlign=middle;whiteSpace=wrap;rounded=0;" parent="WIyWlLk6GJQsqaUBKTNV-1" vertex="1">
          <mxGeometry x="462" y="1142" width="40" height="20" as="geometry" />
        </mxCell>
        <mxCell id="KOET7OHkxtdppqmsKOV2-13" value="" style="curved=1;endArrow=classic;html=1;exitX=0.148;exitY=0.047;exitDx=0;exitDy=0;entryX=0;entryY=0.5;entryDx=0;entryDy=0;exitPerimeter=0;" parent="WIyWlLk6GJQsqaUBKTNV-1" source="KOET7OHkxtdppqmsKOV2-4" target="KOET7OHkxtdppqmsKOV2-6" edge="1">
          <mxGeometry width="50" height="50" relative="1" as="geometry">
            <mxPoint x="270" y="573" as="sourcePoint" />
            <mxPoint x="320" y="523" as="targetPoint" />
            <Array as="points">
              <mxPoint x="371" y="1260" />
              <mxPoint x="240" y="1090" />
              <mxPoint x="160" y="640" />
              <mxPoint x="250" y="370" />
            </Array>
          </mxGeometry>
        </mxCell>
        <mxCell id="KOET7OHkxtdppqmsKOV2-14" value="" style="curved=1;endArrow=none;html=1;entryX=1;entryY=0.5;entryDx=0;entryDy=0;exitX=0.124;exitY=-0.02;exitDx=0;exitDy=0;exitPerimeter=0;endFill=0;startArrow=classic;startFill=1;" parent="WIyWlLk6GJQsqaUBKTNV-1" source="EIEGdvuZ-sx4ZcDznCTi-5" target="EIEGdvuZ-sx4ZcDznCTi-2" edge="1">
          <mxGeometry width="50" height="50" relative="1" as="geometry">
            <mxPoint x="440" y="463" as="sourcePoint" />
            <mxPoint x="940" y="423" as="targetPoint" />
            <Array as="points">
              <mxPoint x="430" y="490" />
              <mxPoint x="590" y="490" />
              <mxPoint x="770" y="490" />
              <mxPoint x="880" y="460" />
              <mxPoint x="969" y="393" />
              <mxPoint x="960" y="300" />
            </Array>
          </mxGeometry>
        </mxCell>
        <mxCell id="KOET7OHkxtdppqmsKOV2-15" value="" style="curved=1;endArrow=classic;html=1;exitX=0.79;exitY=-0.072;exitDx=0;exitDy=0;exitPerimeter=0;entryX=0.25;entryY=1;entryDx=0;entryDy=0;fontColor=#FF0505;strokeColor=#000000;" parent="WIyWlLk6GJQsqaUBKTNV-1" source="EIEGdvuZ-sx4ZcDznCTi-5" target="CbVcJyqTISDlB1ADT2_T-0" edge="1">
          <mxGeometry width="50" height="50" relative="1" as="geometry">
            <mxPoint x="540" y="433" as="sourcePoint" />
            <mxPoint x="590" y="383" as="targetPoint" />
            <Array as="points">
              <mxPoint x="1000" y="480" />
              <mxPoint x="1010" y="270" />
              <mxPoint x="810" y="260" />
              <mxPoint x="640" y="270" />
              <mxPoint x="530" y="280" />
            </Array>
          </mxGeometry>
        </mxCell>
        <mxCell id="IJAy8uQEqMEVMCcrtVZX-0" value="" style="curved=1;endArrow=classic;html=1;strokeColor=#000000;exitX=0.693;exitY=0.006;exitDx=0;exitDy=0;entryX=0;entryY=0.5;entryDx=0;entryDy=0;exitPerimeter=0;" parent="WIyWlLk6GJQsqaUBKTNV-1" source="EIEGdvuZ-sx4ZcDznCTi-9" target="EIEGdvuZ-sx4ZcDznCTi-2" edge="1">
          <mxGeometry width="50" height="50" relative="1" as="geometry">
            <mxPoint x="520" y="613" as="sourcePoint" />
            <mxPoint x="570" y="563" as="targetPoint" />
            <Array as="points">
              <mxPoint x="705" y="730" />
              <mxPoint x="290" y="740" />
              <mxPoint x="260" y="440" />
              <mxPoint x="320" y="299" />
            </Array>
          </mxGeometry>
        </mxCell>
        <mxCell id="IJAy8uQEqMEVMCcrtVZX-1" value="" style="curved=1;endArrow=classic;html=1;strokeColor=#000000;entryX=0.127;entryY=-0.038;entryDx=0;entryDy=0;exitX=0.941;exitY=-0.006;exitDx=0;exitDy=0;exitPerimeter=0;entryPerimeter=0;" parent="WIyWlLk6GJQsqaUBKTNV-1" source="EIEGdvuZ-sx4ZcDznCTi-9" target="KOET7OHkxtdppqmsKOV2-6" edge="1">
          <mxGeometry width="50" height="50" relative="1" as="geometry">
            <mxPoint x="640" y="663" as="sourcePoint" />
            <mxPoint x="380" y="393" as="targetPoint" />
            <Array as="points">
              <mxPoint x="812" y="740" />
              <mxPoint x="1010" y="740" />
              <mxPoint x="1060" y="530" />
              <mxPoint x="870" y="320" />
              <mxPoint x="530" y="330" />
            </Array>
          </mxGeometry>
        </mxCell>
        <mxCell id="IJAy8uQEqMEVMCcrtVZX-2" value="" style="curved=1;endArrow=classic;html=1;strokeColor=#000000;entryX=0.218;entryY=-0.013;entryDx=0;entryDy=0;entryPerimeter=0;exitX=0.945;exitY=1;exitDx=0;exitDy=0;exitPerimeter=0;" parent="WIyWlLk6GJQsqaUBKTNV-1" source="KOET7OHkxtdppqmsKOV2-9" target="KOET7OHkxtdppqmsKOV2-11" edge="1">
          <mxGeometry width="50" height="50" relative="1" as="geometry">
            <mxPoint x="825" y="686" as="sourcePoint" />
            <mxPoint x="840" y="766" as="targetPoint" />
            <Array as="points">
              <mxPoint x="1010" y="890" />
              <mxPoint x="875" y="1110" />
              <mxPoint x="740" y="1130" />
              <mxPoint x="590" y="1130" />
              <mxPoint x="522" y="1120" />
            </Array>
          </mxGeometry>
        </mxCell>
        <mxCell id="IJAy8uQEqMEVMCcrtVZX-3" value="&lt;table border=&quot;1&quot; width=&quot;100%&quot; style=&quot;width: 100% ; height: 100% ; border-collapse: collapse ; border: 1px solid rgb(0 , 0 , 0)&quot;&gt;&lt;tbody&gt;&lt;tr&gt;&lt;td&gt;&lt;u&gt;ID_Struttura&lt;/u&gt;&lt;/td&gt;&lt;td&gt;&lt;u&gt;ID_Prenotazione&lt;/u&gt;&lt;/td&gt;&lt;/tr&gt;&lt;/tbody&gt;&lt;/table&gt;" style="text;html=1;strokeColor=none;fillColor=none;overflow=fill;align=center;fontStyle=2" parent="WIyWlLk6GJQsqaUBKTNV-1" vertex="1">
          <mxGeometry x="513" y="859" width="202" height="30" as="geometry" />
        </mxCell>
        <mxCell id="IJAy8uQEqMEVMCcrtVZX-4" value="&lt;b&gt;EROGA&lt;/b&gt;" style="text;html=1;strokeColor=none;fillColor=none;align=center;verticalAlign=middle;whiteSpace=wrap;rounded=0;" parent="WIyWlLk6GJQsqaUBKTNV-1" vertex="1">
          <mxGeometry x="515" y="837" width="40" height="20" as="geometry" />
        </mxCell>
        <mxCell id="IJAy8uQEqMEVMCcrtVZX-7" value="&lt;table border=&quot;1&quot; width=&quot;100%&quot; style=&quot;width: 100% ; height: 100% ; border-collapse: collapse ; border: 1px solid rgb(0 , 0 , 0)&quot;&gt;&lt;tbody&gt;&lt;tr&gt;&lt;td&gt;&lt;u&gt;ID_Struttura&lt;/u&gt;&lt;/td&gt;&lt;td&gt;&lt;span style=&quot;font-style: normal&quot;&gt;Data_Vendita&lt;/span&gt;&lt;/td&gt;&lt;td&gt;&lt;u&gt;ID_Prodotto&lt;/u&gt;&lt;/td&gt;&lt;/tr&gt;&lt;/tbody&gt;&lt;/table&gt;" style="text;html=1;strokeColor=none;fillColor=none;overflow=fill;align=center;fontStyle=2" parent="WIyWlLk6GJQsqaUBKTNV-1" vertex="1">
          <mxGeometry x="503.5" y="934" width="227.5" height="30" as="geometry" />
        </mxCell>
        <mxCell id="IJAy8uQEqMEVMCcrtVZX-8" value="&lt;b&gt;VENDITA&lt;/b&gt;" style="text;html=1;strokeColor=none;fillColor=none;align=center;verticalAlign=middle;whiteSpace=wrap;rounded=0;" parent="WIyWlLk6GJQsqaUBKTNV-1" vertex="1">
          <mxGeometry x="514.5" y="912" width="55.5" height="20" as="geometry" />
        </mxCell>
        <mxCell id="IJAy8uQEqMEVMCcrtVZX-9" value="" style="curved=1;endArrow=classic;html=1;strokeColor=#000000;entryX=0.123;entryY=1.031;entryDx=0;entryDy=0;entryPerimeter=0;exitX=0.5;exitY=0;exitDx=0;exitDy=0;" parent="WIyWlLk6GJQsqaUBKTNV-1" source="IJAy8uQEqMEVMCcrtVZX-3" target="EIEGdvuZ-sx4ZcDznCTi-9" edge="1">
          <mxGeometry width="50" height="50" relative="1" as="geometry">
            <mxPoint x="600" y="986" as="sourcePoint" />
            <mxPoint x="650" y="936" as="targetPoint" />
            <Array as="points">
              <mxPoint x="614" y="840" />
              <mxPoint x="550" y="830" />
              <mxPoint x="460" y="840" />
            </Array>
          </mxGeometry>
        </mxCell>
        <mxCell id="IJAy8uQEqMEVMCcrtVZX-10" value="" style="curved=1;endArrow=classic;html=1;strokeColor=#000000;exitX=0.75;exitY=0;exitDx=0;exitDy=0;entryX=0.033;entryY=0.991;entryDx=0;entryDy=0;entryPerimeter=0;" parent="WIyWlLk6GJQsqaUBKTNV-1" source="IJAy8uQEqMEVMCcrtVZX-7" target="KOET7OHkxtdppqmsKOV2-9" edge="1">
          <mxGeometry width="50" height="50" relative="1" as="geometry">
            <mxPoint x="300" y="806" as="sourcePoint" />
            <mxPoint x="379" y="630" as="targetPoint" />
            <Array as="points">
              <mxPoint x="664" y="890" />
              <mxPoint x="382" y="916" />
              <mxPoint x="368" y="770" />
              <mxPoint x="327" y="680" />
            </Array>
          </mxGeometry>
        </mxCell>
        <mxCell id="IJAy8uQEqMEVMCcrtVZX-11" value="" style="curved=1;endArrow=classic;html=1;strokeColor=#000000;entryX=0;entryY=1;entryDx=0;entryDy=0;exitX=0;exitY=0.5;exitDx=0;exitDy=0;" parent="WIyWlLk6GJQsqaUBKTNV-1" source="IJAy8uQEqMEVMCcrtVZX-3" target="EIEGdvuZ-sx4ZcDznCTi-5" edge="1">
          <mxGeometry width="50" height="50" relative="1" as="geometry">
            <mxPoint x="290" y="786" as="sourcePoint" />
            <mxPoint x="340" y="736" as="targetPoint" />
            <Array as="points">
              <mxPoint x="290" y="890" />
              <mxPoint x="250" y="548" />
            </Array>
          </mxGeometry>
        </mxCell>
        <mxCell id="IJAy8uQEqMEVMCcrtVZX-12" value="" style="curved=1;endArrow=classic;html=1;strokeColor=#000000;exitX=0;exitY=0.5;exitDx=0;exitDy=0;entryX=0;entryY=0.5;entryDx=0;entryDy=0;fillColor=#6a00ff;" parent="WIyWlLk6GJQsqaUBKTNV-1" source="IJAy8uQEqMEVMCcrtVZX-7" target="EIEGdvuZ-sx4ZcDznCTi-5" edge="1">
          <mxGeometry width="50" height="50" relative="1" as="geometry">
            <mxPoint x="280" y="896" as="sourcePoint" />
            <mxPoint x="330" y="846" as="targetPoint" />
            <Array as="points">
              <mxPoint x="360" y="960" />
              <mxPoint x="240" y="810" />
              <mxPoint x="250" y="530" />
            </Array>
          </mxGeometry>
        </mxCell>
        <mxCell id="IJAy8uQEqMEVMCcrtVZX-13" value="&lt;table border=&quot;1&quot; width=&quot;100%&quot; style=&quot;width: 100% ; height: 100% ; border-collapse: collapse ; border: 1px solid rgb(0 , 0 , 0)&quot;&gt;&lt;tbody&gt;&lt;tr&gt;&lt;td&gt;&lt;u&gt;ID_Prodotto&lt;/u&gt;&lt;/td&gt;&lt;td&gt;&lt;span style=&quot;font-style: normal&quot;&gt;Data_Acquisto&lt;/span&gt;&lt;/td&gt;&lt;td&gt;&lt;u&gt;ID_Cliente&lt;/u&gt;&lt;/td&gt;&lt;/tr&gt;&lt;/tbody&gt;&lt;/table&gt;" style="text;html=1;strokeColor=none;fillColor=none;overflow=fill;align=center;fontStyle=2" parent="WIyWlLk6GJQsqaUBKTNV-1" vertex="1">
          <mxGeometry x="513" y="682" width="227" height="30" as="geometry" />
        </mxCell>
        <mxCell id="IJAy8uQEqMEVMCcrtVZX-14" value="&lt;b&gt;ACQUISTO&lt;/b&gt;" style="text;html=1;strokeColor=none;fillColor=none;align=center;verticalAlign=middle;whiteSpace=wrap;rounded=0;" parent="WIyWlLk6GJQsqaUBKTNV-1" vertex="1">
          <mxGeometry x="525" y="660" width="40" height="20" as="geometry" />
        </mxCell>
        <mxCell id="IJAy8uQEqMEVMCcrtVZX-17" value="" style="curved=1;endArrow=classic;html=1;strokeColor=#000000;entryX=0.075;entryY=0.973;entryDx=0;entryDy=0;entryPerimeter=0;exitX=0.304;exitY=0.007;exitDx=0;exitDy=0;exitPerimeter=0;" parent="WIyWlLk6GJQsqaUBKTNV-1" source="IJAy8uQEqMEVMCcrtVZX-13" target="KOET7OHkxtdppqmsKOV2-9" edge="1">
          <mxGeometry width="50" height="50" relative="1" as="geometry">
            <mxPoint x="440" y="763" as="sourcePoint" />
            <mxPoint x="490" y="713" as="targetPoint" />
            <Array as="points">
              <mxPoint x="580" y="640" />
              <mxPoint x="480" y="660" />
              <mxPoint x="354" y="670" />
            </Array>
          </mxGeometry>
        </mxCell>
        <mxCell id="IJAy8uQEqMEVMCcrtVZX-18" value="" style="curved=1;endArrow=classic;html=1;strokeColor=#000000;entryX=0.056;entryY=1;entryDx=0;entryDy=0;exitX=1;exitY=0.5;exitDx=0;exitDy=0;fillColor=#647687;entryPerimeter=0;" parent="WIyWlLk6GJQsqaUBKTNV-1" source="IJAy8uQEqMEVMCcrtVZX-13" target="KOET7OHkxtdppqmsKOV2-6" edge="1">
          <mxGeometry width="50" height="50" relative="1" as="geometry">
            <mxPoint x="740" y="670" as="sourcePoint" />
            <mxPoint x="790" y="620" as="targetPoint" />
            <Array as="points">
              <mxPoint x="810" y="697" />
              <mxPoint x="980" y="697" />
              <mxPoint x="1020" y="570" />
              <mxPoint x="940" y="450" />
              <mxPoint x="710" y="400" />
              <mxPoint x="482" y="430" />
            </Array>
          </mxGeometry>
        </mxCell>
        <mxCell id="IJAy8uQEqMEVMCcrtVZX-19" value="&lt;table border=&quot;1&quot; width=&quot;100%&quot; style=&quot;width: 100% ; height: 100% ; border-collapse: collapse ; border: 1px solid rgb(0 , 0 , 0)&quot;&gt;&lt;tbody&gt;&lt;tr&gt;&lt;td&gt;&lt;u&gt;ID_Struttura&lt;/u&gt;&lt;/td&gt;&lt;td&gt;&lt;u&gt;ID_Fornitore&lt;/u&gt;&lt;/td&gt;&lt;/tr&gt;&lt;/tbody&gt;&lt;/table&gt;" style="text;html=1;strokeColor=none;fillColor=none;overflow=fill;align=center;fontStyle=2" parent="WIyWlLk6GJQsqaUBKTNV-1" vertex="1">
          <mxGeometry x="519" y="442" width="202" height="30" as="geometry" />
        </mxCell>
        <mxCell id="IJAy8uQEqMEVMCcrtVZX-20" value="&lt;b&gt;RIFORNISCE&lt;/b&gt;" style="text;html=1;strokeColor=none;fillColor=none;align=center;verticalAlign=middle;whiteSpace=wrap;rounded=0;" parent="WIyWlLk6GJQsqaUBKTNV-1" vertex="1">
          <mxGeometry x="536" y="420" width="40" height="20" as="geometry" />
        </mxCell>
        <mxCell id="IJAy8uQEqMEVMCcrtVZX-22" value="" style="curved=1;endArrow=classic;html=1;strokeColor=#000000;entryX=0;entryY=0;entryDx=0;entryDy=0;exitX=0;exitY=0.5;exitDx=0;exitDy=0;" parent="WIyWlLk6GJQsqaUBKTNV-1" source="IJAy8uQEqMEVMCcrtVZX-19" target="EIEGdvuZ-sx4ZcDznCTi-5" edge="1">
          <mxGeometry width="50" height="50" relative="1" as="geometry">
            <mxPoint x="290" y="560" as="sourcePoint" />
            <mxPoint x="340" y="510" as="targetPoint" />
            <Array as="points">
              <mxPoint x="410" y="457" />
              <mxPoint x="310" y="460" />
              <mxPoint x="300" y="518" />
            </Array>
          </mxGeometry>
        </mxCell>
        <mxCell id="IJAy8uQEqMEVMCcrtVZX-23" value="" style="curved=1;endArrow=classic;html=1;strokeColor=#000000;exitX=1;exitY=0.5;exitDx=0;exitDy=0;entryX=0.25;entryY=0;entryDx=0;entryDy=0;fillColor=#fa6800;" parent="WIyWlLk6GJQsqaUBKTNV-1" source="IJAy8uQEqMEVMCcrtVZX-19" target="KOET7OHkxtdppqmsKOV2-11" edge="1">
          <mxGeometry width="50" height="50" relative="1" as="geometry">
            <mxPoint x="910" y="850" as="sourcePoint" />
            <mxPoint x="1090" y="850" as="targetPoint" />
            <Array as="points">
              <mxPoint x="830" y="460" />
              <mxPoint x="930" y="490" />
              <mxPoint x="1030" y="650" />
              <mxPoint x="1040" y="910" />
              <mxPoint x="910" y="1120" />
              <mxPoint x="730" y="1140" />
              <mxPoint x="650" y="1140" />
              <mxPoint x="590" y="1140" />
              <mxPoint x="534" y="1130" />
            </Array>
          </mxGeometry>
        </mxCell>
        <mxCell id="IJAy8uQEqMEVMCcrtVZX-24" value="&lt;table border=&quot;1&quot; width=&quot;100%&quot; style=&quot;width: 100% ; height: 100% ; border-collapse: collapse ; border: 1px solid rgb(0 , 0 , 0)&quot;&gt;&lt;tbody&gt;&lt;tr&gt;&lt;td&gt;&lt;u&gt;ID_Prestazione&lt;/u&gt;&lt;/td&gt;&lt;td&gt;&lt;u&gt;ID_Prenotazione&lt;/u&gt;&lt;/td&gt;&lt;/tr&gt;&lt;/tbody&gt;&lt;/table&gt;" style="text;html=1;strokeColor=none;fillColor=none;overflow=fill;align=center;fontStyle=2" parent="WIyWlLk6GJQsqaUBKTNV-1" vertex="1">
          <mxGeometry x="519" y="1084" width="202" height="30" as="geometry" />
        </mxCell>
        <mxCell id="IJAy8uQEqMEVMCcrtVZX-25" value="&lt;b&gt;COMPOSTA&lt;/b&gt;" style="text;html=1;strokeColor=none;fillColor=none;align=center;verticalAlign=middle;whiteSpace=wrap;rounded=0;" parent="WIyWlLk6GJQsqaUBKTNV-1" vertex="1">
          <mxGeometry x="515" y="1062" width="90" height="20" as="geometry" />
        </mxCell>
        <mxCell id="IJAy8uQEqMEVMCcrtVZX-26" value="" style="curved=1;endArrow=none;html=1;strokeColor=#000000;entryX=0;entryY=0.5;entryDx=0;entryDy=0;exitX=0;exitY=0.5;exitDx=0;exitDy=0;endFill=0;startArrow=classic;startFill=1;" parent="WIyWlLk6GJQsqaUBKTNV-1" source="KOET7OHkxtdppqmsKOV2-0" target="IJAy8uQEqMEVMCcrtVZX-24" edge="1">
          <mxGeometry width="50" height="50" relative="1" as="geometry">
            <mxPoint x="260" y="1252" as="sourcePoint" />
            <mxPoint x="310" y="1202" as="targetPoint" />
            <Array as="points">
              <mxPoint x="450" y="1032" />
              <mxPoint x="450" y="1099" />
            </Array>
          </mxGeometry>
        </mxCell>
        <mxCell id="IJAy8uQEqMEVMCcrtVZX-27" value="" style="curved=1;endArrow=classic;html=1;strokeColor=#000000;exitX=1;exitY=0.5;exitDx=0;exitDy=0;entryX=0.199;entryY=1.049;entryDx=0;entryDy=0;fillColor=#e3c800;entryPerimeter=0;" parent="WIyWlLk6GJQsqaUBKTNV-1" source="IJAy8uQEqMEVMCcrtVZX-24" target="EIEGdvuZ-sx4ZcDznCTi-9" edge="1">
          <mxGeometry width="50" height="50" relative="1" as="geometry">
            <mxPoint x="710" y="1060" as="sourcePoint" />
            <mxPoint x="760" y="1010" as="targetPoint" />
            <Array as="points">
              <mxPoint x="800" y="1090" />
              <mxPoint x="810" y="900" />
              <mxPoint x="730" y="830" />
              <mxPoint x="622" y="820" />
              <mxPoint x="493" y="830" />
            </Array>
          </mxGeometry>
        </mxCell>
        <mxCell id="IJAy8uQEqMEVMCcrtVZX-28" value="&lt;table border=&quot;1&quot; width=&quot;100%&quot; style=&quot;width: 100% ; height: 100% ; border-collapse: collapse ; border: 1px solid rgb(0 , 0 , 0)&quot;&gt;&lt;tbody&gt;&lt;tr&gt;&lt;td&gt;&lt;u&gt;ID_Fornitore&lt;/u&gt;&lt;/td&gt;&lt;td&gt;&lt;u&gt;Categoria&lt;/u&gt;&lt;/td&gt;&lt;/tr&gt;&lt;/tbody&gt;&lt;/table&gt;" style="text;html=1;strokeColor=none;fillColor=none;overflow=fill;align=center;fontStyle=2" parent="WIyWlLk6GJQsqaUBKTNV-1" vertex="1">
          <mxGeometry x="535" y="1244" width="178" height="30" as="geometry" />
        </mxCell>
        <mxCell id="IJAy8uQEqMEVMCcrtVZX-29" value="&lt;b&gt;CATEGORIA_FORN&lt;/b&gt;" style="text;html=1;strokeColor=none;fillColor=none;align=center;verticalAlign=middle;whiteSpace=wrap;rounded=0;" parent="WIyWlLk6GJQsqaUBKTNV-1" vertex="1">
          <mxGeometry x="531" y="1222" width="122" height="20" as="geometry" />
        </mxCell>
        <mxCell id="IJAy8uQEqMEVMCcrtVZX-30" value="" style="curved=1;endArrow=classic;html=1;strokeColor=#000000;entryX=0.119;entryY=0.97;entryDx=0;entryDy=0;exitX=0;exitY=0.5;exitDx=0;exitDy=0;entryPerimeter=0;" parent="WIyWlLk6GJQsqaUBKTNV-1" source="IJAy8uQEqMEVMCcrtVZX-28" target="KOET7OHkxtdppqmsKOV2-11" edge="1">
          <mxGeometry width="50" height="50" relative="1" as="geometry">
            <mxPoint x="280" y="1372" as="sourcePoint" />
            <mxPoint x="330" y="1322" as="targetPoint" />
            <Array as="points">
              <mxPoint x="510" y="1262" />
              <mxPoint x="486" y="1242" />
            </Array>
          </mxGeometry>
        </mxCell>
        <mxCell id="CbVcJyqTISDlB1ADT2_T-0" value="&lt;table border=&quot;1&quot; width=&quot;100%&quot; style=&quot;width: 100% ; height: 100% ; border-collapse: collapse ; border: 1px solid rgb(0 , 0 , 0)&quot;&gt;&lt;tbody&gt;&lt;tr&gt;&lt;td&gt;&lt;u&gt;&lt;i&gt;ID_Amministratore&lt;/i&gt;&lt;/u&gt;&lt;/td&gt;&lt;td&gt;Data_Nascita&lt;/td&gt;&lt;td&gt;Cod_Fiscale&lt;/td&gt;&lt;/tr&gt;&lt;/tbody&gt;&lt;/table&gt;" style="text;html=1;strokeColor=none;fillColor=none;overflow=fill;align=center;" parent="WIyWlLk6GJQsqaUBKTNV-1" vertex="1">
          <mxGeometry x="460" y="220" width="290" height="30" as="geometry" />
        </mxCell>
        <mxCell id="CbVcJyqTISDlB1ADT2_T-1" value="&lt;b&gt;AMMINISTRATORE&lt;/b&gt;" style="text;html=1;strokeColor=none;fillColor=none;align=center;verticalAlign=middle;whiteSpace=wrap;rounded=0;" parent="WIyWlLk6GJQsqaUBKTNV-1" vertex="1">
          <mxGeometry x="496" y="198" width="40" height="20" as="geometry" />
        </mxCell>
        <mxCell id="CbVcJyqTISDlB1ADT2_T-2" value="&lt;table border=&quot;1&quot; width=&quot;100%&quot; style=&quot;width: 100% ; height: 100% ; border-collapse: collapse ; border: 1px solid rgb(0 , 0 , 0)&quot;&gt;&lt;tbody&gt;&lt;tr&gt;&lt;td&gt;&lt;u&gt;ID_Utente&lt;/u&gt;&lt;/td&gt;&lt;td&gt;Email&lt;/td&gt;&lt;td&gt;Nome&lt;/td&gt;&lt;td&gt;Cognome&lt;/td&gt;&lt;td&gt;Sesso&lt;/td&gt;&lt;td&gt;Indirizzo&lt;/td&gt;&lt;td&gt;Num_Telefono&lt;/td&gt;&lt;td&gt;Password&lt;/td&gt;&lt;/tr&gt;&lt;/tbody&gt;&lt;/table&gt;" style="text;html=1;strokeColor=none;fillColor=none;overflow=fill;align=center;" parent="WIyWlLk6GJQsqaUBKTNV-1" vertex="1">
          <mxGeometry x="347" y="153" width="533" height="30" as="geometry" />
        </mxCell>
        <mxCell id="CbVcJyqTISDlB1ADT2_T-3" value="&lt;b&gt;UTENTE&lt;/b&gt;" style="text;html=1;strokeColor=none;fillColor=none;align=center;verticalAlign=middle;whiteSpace=wrap;rounded=0;" parent="WIyWlLk6GJQsqaUBKTNV-1" vertex="1">
          <mxGeometry x="352" y="130" width="40" height="20" as="geometry" />
        </mxCell>
        <mxCell id="CbVcJyqTISDlB1ADT2_T-5" value="" style="curved=1;endArrow=classic;html=1;entryX=0;entryY=1;entryDx=0;entryDy=0;exitX=0;exitY=0.5;exitDx=0;exitDy=0;" parent="WIyWlLk6GJQsqaUBKTNV-1" source="CbVcJyqTISDlB1ADT2_T-0" target="CbVcJyqTISDlB1ADT2_T-2" edge="1">
          <mxGeometry width="50" height="50" relative="1" as="geometry">
            <mxPoint x="290" y="260" as="sourcePoint" />
            <mxPoint x="340" y="210" as="targetPoint" />
            <Array as="points">
              <mxPoint x="330" y="240" />
              <mxPoint x="300" y="210" />
              <mxPoint x="320" y="183" />
            </Array>
          </mxGeometry>
        </mxCell>
        <mxCell id="CbVcJyqTISDlB1ADT2_T-6" value="" style="curved=1;endArrow=classic;html=1;entryX=0;entryY=0.5;entryDx=0;entryDy=0;exitX=0;exitY=0.25;exitDx=0;exitDy=0;" parent="WIyWlLk6GJQsqaUBKTNV-1" source="EIEGdvuZ-sx4ZcDznCTi-2" target="CbVcJyqTISDlB1ADT2_T-2" edge="1">
          <mxGeometry width="50" height="50" relative="1" as="geometry">
            <mxPoint x="270" y="310" as="sourcePoint" />
            <mxPoint x="320" y="260" as="targetPoint" />
            <Array as="points">
              <mxPoint x="347" y="292" />
              <mxPoint x="300" y="270" />
              <mxPoint x="270" y="230" />
              <mxPoint x="280" y="190" />
              <mxPoint x="320" y="168" />
            </Array>
          </mxGeometry>
        </mxCell>
        <mxCell id="CbVcJyqTISDlB1ADT2_T-7" value="" style="curved=1;endArrow=classic;html=1;entryX=0;entryY=0;entryDx=0;entryDy=0;exitX=0;exitY=0.25;exitDx=0;exitDy=0;" parent="WIyWlLk6GJQsqaUBKTNV-1" source="KOET7OHkxtdppqmsKOV2-6" target="CbVcJyqTISDlB1ADT2_T-2" edge="1">
          <mxGeometry width="50" height="50" relative="1" as="geometry">
            <mxPoint x="260" y="300" as="sourcePoint" />
            <mxPoint x="310" y="250" as="targetPoint" />
            <Array as="points">
              <mxPoint x="310" y="320" />
              <mxPoint x="240" y="230" />
              <mxPoint x="270" y="153" />
            </Array>
          </mxGeometry>
        </mxCell>
        <mxCell id="CbVcJyqTISDlB1ADT2_T-9" value="&lt;b&gt;&lt;font style=&quot;font-size: 20px&quot;&gt;SCHEMA RELAZIONALE FINALE NON NORMALIZZATO&lt;/font&gt;&lt;/b&gt;" style="text;html=1;strokeColor=none;fillColor=none;align=left;verticalAlign=middle;whiteSpace=wrap;rounded=0;" parent="WIyWlLk6GJQsqaUBKTNV-1" vertex="1">
          <mxGeometry x="384" y="80" width="606" height="20" as="geometry" />
        </mxCell>
        <mxCell id="CbVcJyqTISDlB1ADT2_T-19" value="" style="endArrow=none;html=1;rounded=0;strokeColor=#000000;" parent="WIyWlLk6GJQsqaUBKTNV-1" edge="1">
          <mxGeometry relative="1" as="geometry">
            <mxPoint x="80" y="1450" as="sourcePoint" />
            <mxPoint x="80" y="40" as="targetPoint" />
          </mxGeometry>
        </mxCell>
        <mxCell id="CbVcJyqTISDlB1ADT2_T-20" value="" style="endArrow=none;html=1;rounded=0;strokeColor=#000000;" parent="WIyWlLk6GJQsqaUBKTNV-1" edge="1">
          <mxGeometry relative="1" as="geometry">
            <mxPoint x="80" y="40" as="sourcePoint" />
            <mxPoint x="1160" y="40" as="targetPoint" />
          </mxGeometry>
        </mxCell>
        <mxCell id="CbVcJyqTISDlB1ADT2_T-21" value="" style="endArrow=none;html=1;rounded=0;strokeColor=#000000;" parent="WIyWlLk6GJQsqaUBKTNV-1" edge="1">
          <mxGeometry relative="1" as="geometry">
            <mxPoint x="1160" y="1450" as="sourcePoint" />
            <mxPoint x="1160" y="40" as="targetPoint" />
          </mxGeometry>
        </mxCell>
        <mxCell id="CbVcJyqTISDlB1ADT2_T-22" value="" style="endArrow=none;html=1;rounded=0;strokeColor=#000000;" parent="WIyWlLk6GJQsqaUBKTNV-1" edge="1">
          <mxGeometry relative="1" as="geometry">
            <mxPoint x="80" y="1450" as="sourcePoint" />
            <mxPoint x="1160" y="1450" as="targetPoint" />
          </mxGeometry>
        </mxCell>
        <mxCell id="P5vwJX5uKKcKpopHVMOV-1" value="" style="curved=1;endArrow=classic;html=1;exitX=0.292;exitY=0.027;exitDx=0;exitDy=0;exitPerimeter=0;entryX=0;entryY=0.5;entryDx=0;entryDy=0;" parent="WIyWlLk6GJQsqaUBKTNV-1" source="KOET7OHkxtdppqmsKOV2-4" target="EIEGdvuZ-sx4ZcDznCTi-9" edge="1">
          <mxGeometry width="50" height="50" relative="1" as="geometry">
            <mxPoint x="370" y="1080" as="sourcePoint" />
            <mxPoint x="400" y="800" as="targetPoint" />
            <Array as="points">
              <mxPoint x="471" y="1280" />
              <mxPoint x="390" y="1170" />
              <mxPoint x="310" y="990" />
              <mxPoint x="290" y="790" />
            </Array>
          </mxGeometry>
        </mxCell>
      </root>
    </mxGraphModel>
  </diagram>
</mxfile>
